<svg width="76" height="17" viewBox="0 0 76 17" fill="none" xmlns="http://www.w3.org/2000/svg">
<path d="M15.7 13.6L14.2 14.52C12.2933 15.64 10.2667 16.2 8.12 16.2C6.70667 16.2 5.42667 15.8533 4.28 15.16C3.13333 14.4667 2.23333 13.52 1.58 12.32C0.926667 11.12 0.6 9.79333 0.6 8.34C0.6 6.82 0.96 5.47333 1.68 4.3C2.4 3.11333 3.36667 2.19333 4.58 1.54C5.80667 0.886666 7.14667 0.56 8.6 0.56C9.65333 0.56 10.6 0.739999 11.44 1.1C12.2933 1.44667 13.1333 1.94 13.96 2.58C13.9733 2.59333 14 2.6 14.04 2.6C14.1067 2.6 14.1867 2.57333 14.28 2.52C14.3867 2.45333 14.4667 2.39333 14.52 2.34L14.78 2.62L12.12 5.26L11.84 5C11.92 4.92 11.98 4.83333 12.02 4.74C12.0733 4.63333 12.0733 4.55333 12.02 4.5C10.94 3.55333 9.80667 3.08 8.62 3.08C7.68667 3.08 6.82 3.29333 6.02 3.72C5.22 4.14667 4.58 4.76 4.1 5.56C3.63333 6.34667 3.4 7.27333 3.4 8.34C3.4 9.31333 3.6 10.2 4 11C4.4 11.7867 4.96 12.4133 5.68 12.88C6.4 13.3467 7.22 13.58 8.14 13.58C9.7 13.58 11.06 13.2133 12.22 12.48V9.56H8.6C8.53333 9.56 8.48 9.60667 8.44 9.7C8.4 9.79333 8.38 9.88667 8.38 9.98H8V6.78H8.38C8.38 6.87333 8.4 6.96667 8.44 7.06C8.48 7.15333 8.53333 7.2 8.6 7.2H15.24V7.58C15.1467 7.58 15.0467 7.6 14.94 7.64C14.8467 7.68 14.8 7.73333 14.8 7.8V13.36C14.8 13.4267 14.8533 13.46 14.96 13.46C15.12 13.46 15.3 13.4 15.5 13.28L15.7 13.6ZM28.7738 15.48C28.8271 15.5733 29.0071 15.62 29.3138 15.62V16H25.2538V15.62C25.4404 15.62 25.5671 15.5867 25.6338 15.52C25.7004 15.4533 25.7071 15.3867 25.6538 15.32L22.2938 9.66H20.2338V15.4C20.2338 15.4667 20.2871 15.52 20.3938 15.56C20.5004 15.6 20.6004 15.62 20.6938 15.62V16H17.0938V15.62C17.1871 15.62 17.2871 15.6 17.3938 15.56C17.5004 15.52 17.5538 15.4667 17.5538 15.4V1.6C17.5538 1.53333 17.5004 1.48 17.3938 1.44C17.3004 1.4 17.2071 1.38 17.1138 1.38V0.999999H23.2138C24.9738 0.999999 26.3004 1.4 27.1938 2.2C28.1004 2.98667 28.5538 4.00667 28.5538 5.26C28.5538 6.42 28.2338 7.35333 27.5938 8.06C26.9671 8.76667 26.1538 9.24 25.1538 9.48L28.7738 15.48ZM20.2338 3.32V7.24H23.5138C24.3404 7.24 24.9604 7.04667 25.3738 6.66C25.7871 6.27333 25.9938 5.80667 25.9938 5.26C25.9938 4.72667 25.7604 4.27333 25.2938 3.9C24.8271 3.51333 24.2538 3.32 23.5738 3.32H20.2338ZM45.367 15.44C45.407 15.56 45.567 15.62 45.847 15.62V16H41.787V15.62C41.9604 15.62 42.0804 15.58 42.147 15.5C42.2137 15.42 42.227 15.34 42.187 15.26L41.087 12.44H34.567L33.467 15.26L33.447 15.32C33.447 15.4 33.4804 15.4733 33.547 15.54C33.627 15.5933 33.727 15.62 33.847 15.62V16H29.907V15.62C30.1737 15.62 30.3337 15.56 30.387 15.44L35.947 1.92C35.987 1.84 36.007 1.76667 36.007 1.7C36.007 1.58 35.9537 1.5 35.847 1.46C35.7404 1.40667 35.627 1.38 35.507 1.38V0.999999H40.167V1.38C40.047 1.38 39.9337 1.40667 39.827 1.46C39.7204 1.5 39.667 1.58 39.667 1.7C39.667 1.76667 39.687 1.84 39.727 1.92L45.367 15.44ZM37.827 4.12L35.467 10.14H40.187L37.827 4.12ZM53.1547 16.38C52.008 16.38 50.9414 16.1133 49.9547 15.58C48.968 15.0333 48.0147 14.2867 47.0947 13.34C47.068 13.3133 47.0347 13.3 46.9947 13.3C46.8747 13.3 46.7414 13.3733 46.5947 13.52L46.3347 13.24L49.1147 10.62L49.3747 10.9C49.2947 10.9667 49.2214 11.06 49.1547 11.18C49.088 11.3 49.0747 11.3867 49.1147 11.44C50.3547 13.0133 51.708 13.8 53.1747 13.8C53.6814 13.8 54.1347 13.7 54.5347 13.5C54.948 13.3 55.268 13.0467 55.4947 12.74C55.7214 12.42 55.8347 12.0933 55.8347 11.76C55.8347 10.9733 55.148 10.3267 53.7747 9.82L51.3147 8.9C50.328 8.54 49.5547 8.04667 48.9947 7.42C48.448 6.79333 48.1747 6.04 48.1747 5.16C48.1747 4.29333 48.3747 3.54 48.7747 2.9C49.188 2.24667 49.768 1.74667 50.5147 1.4C51.2614 1.05333 52.128 0.879999 53.1147 0.879999C54.048 0.879999 54.828 1.02667 55.4547 1.32C56.0947 1.6 56.7747 2.03333 57.4947 2.62C57.508 2.63333 57.5347 2.64 57.5747 2.64C57.6414 2.64 57.7147 2.62 57.7947 2.58C57.888 2.52667 57.9614 2.47333 58.0147 2.42L58.2747 2.68L55.7947 5.12L55.5347 4.84C55.6014 4.77333 55.648 4.7 55.6747 4.62C55.7147 4.52667 55.708 4.46 55.6547 4.42C54.788 3.72667 53.928 3.38 53.0747 3.38C52.3947 3.38 51.8547 3.54 51.4547 3.86C51.0547 4.16667 50.8547 4.56 50.8547 5.04C50.8547 5.46667 50.9614 5.79333 51.1747 6.02C51.4014 6.24667 51.7414 6.44 52.1947 6.6L54.6147 7.48C55.4547 7.78667 56.1547 8.11333 56.7147 8.46C57.2747 8.79333 57.7214 9.24 58.0547 9.8C58.388 10.3467 58.5547 11.0333 58.5547 11.86C58.5547 12.66 58.3414 13.4067 57.9147 14.1C57.5014 14.78 56.8814 15.3333 56.0547 15.76C55.2414 16.1733 54.2747 16.38 53.1547 16.38ZM67.9164 16.32C66.3697 16.32 64.9831 15.9667 63.7564 15.26C62.5431 14.54 61.5964 13.5933 60.9164 12.42C60.2497 11.2333 59.9164 9.98 59.9164 8.66C59.9164 7.32667 60.2364 6.04667 60.8764 4.82C61.5164 3.58 62.4431 2.57333 63.6564 1.8C64.8697 1.02667 66.2897 0.64 67.9164 0.64C69.5031 0.64 70.8964 1.00667 72.0964 1.74C73.2964 2.47333 74.2164 3.45333 74.8564 4.68C75.4964 5.89333 75.8164 7.22 75.8164 8.66C75.8164 9.94 75.4964 11.1733 74.8564 12.36C74.2297 13.5333 73.3164 14.4867 72.1164 15.22C70.9164 15.9533 69.5164 16.32 67.9164 16.32ZM67.9364 13.68C68.9364 13.68 69.8297 13.4733 70.6164 13.06C71.4164 12.6333 72.0364 12.04 72.4764 11.28C72.9297 10.5067 73.1564 9.63333 73.1564 8.66C73.1564 7.63333 72.9431 6.71333 72.5164 5.9C72.0897 5.08667 71.4764 4.44667 70.6764 3.98C69.8764 3.5 68.9297 3.26 67.8364 3.26C66.8364 3.26 65.9431 3.5 65.1564 3.98C64.3831 4.44667 63.7764 5.09333 63.3364 5.92C62.8964 6.74667 62.6764 7.66 62.6764 8.66C62.6764 9.7 62.9297 10.6 63.4364 11.36C63.9564 12.12 64.6164 12.7 65.4164 13.1C66.2297 13.4867 67.0697 13.68 67.9364 13.68Z" fill="#24C2A5"/>
</svg>
